<svg width="15" height="12" viewBox="0 0 15 12" fill="none" xmlns="http://www.w3.org/2000/svg">
<path d="M14 6.35938C14.4142 6.35938 14.75 6.02359 14.75 5.60938C14.75 5.19516 14.4142 4.85938 14 4.85938V6.35938ZM0.46967 5.07904C0.176777 5.37194 0.176777 5.84681 0.46967 6.13971L5.24264 10.9127C5.53553 11.2056 6.01041 11.2056 6.3033 10.9127C6.59619 10.6198 6.59619 10.1449 6.3033 9.85202L2.06066 5.60938L6.3033 1.36673C6.59619 1.07384 6.59619 0.598968 6.3033 0.306074C6.01041 0.0131807 5.53553 0.0131807 5.24264 0.306074L0.46967 5.07904ZM14 4.85938L1 4.85938V6.35938L14 6.35938V4.85938Z" fill="#579BB1"/>
</svg>
