<svg width="23" height="23" viewBox="0 0 23 23" fill="none" xmlns="http://www.w3.org/2000/svg">
<path d="M16.5365 2.69913C16.9109 2.32471 17.0976 2.13807 17.2842 2.01288C17.6585 1.76285 18.0985 1.62939 18.5486 1.62939C18.9987 1.62939 19.4387 1.76285 19.813 2.01288C19.9996 2.13807 20.1862 2.32471 20.5607 2.69913C20.9339 3.07241 21.1206 3.26018 21.2458 3.44569C21.496 3.82007 21.6296 4.26029 21.6296 4.71063C21.6296 5.16097 21.496 5.60119 21.2458 5.97557C21.1206 6.16108 20.9339 6.34886 20.5607 6.72214L8.23101 19.0518C7.93056 19.3534 7.7792 19.5036 7.60508 19.6231C7.42982 19.7426 7.23521 19.8279 6.846 19.9986L5.79899 20.4596C3.53882 21.4542 2.4076 21.9515 1.85792 21.4019C1.3071 20.851 1.80443 19.721 2.79909 17.4596L3.26 16.4126C3.43071 16.0234 3.5172 15.8288 3.63555 15.6547C3.75619 15.4794 3.90641 15.3292 4.20799 15.0288L16.5365 2.69913Z" stroke="white" stroke-width="2" stroke-linecap="round"/>
<path d="M13.4149 5.77979L17.4391 9.80394" stroke="white" stroke-width="2"/>
</svg>
