<svg width="27" height="32" viewBox="0 0 27 32" fill="none" xmlns="http://www.w3.org/2000/svg">
<path d="M3.82501 24V8H0.625007V24H3.82501ZM18.225 28.8H8.625V32H18.225V28.8ZM23.025 8V24H26.225V8H23.025ZM8.625 3.20001H18.225V6.61139e-06H8.625V3.20001ZM26.225 8C26.225 6.536 26.2282 5.2784 26.0938 4.2752C25.953 3.22721 25.6346 2.22081 24.8186 1.40641L22.5562 3.66881C22.6778 3.79041 22.8282 4.00801 22.9226 4.7024C23.0218 5.44 23.025 6.4464 23.025 8H26.225ZM18.225 3.20001C19.7786 3.20001 20.7834 3.20321 21.5226 3.30241C22.217 3.39681 22.4346 3.54721 22.5562 3.66881L24.8186 1.40641C24.0026 0.590406 22.9978 0.272007 21.9498 0.131207C20.945 -0.00319335 19.689 6.61139e-06 18.225 6.61139e-06V3.20001ZM18.225 32C19.689 32 20.9466 32.0032 21.9498 31.8688C22.9978 31.728 24.0042 31.4096 24.8186 30.5936L22.5562 28.3312C22.4346 28.4528 22.217 28.6032 21.5226 28.6976C20.7834 28.7968 19.7786 28.8 18.225 28.8V32ZM23.025 24C23.025 25.5536 23.0218 26.5584 22.9226 27.2976C22.8282 27.992 22.6778 28.2096 22.5562 28.3312L24.8186 30.5936C25.6346 29.7776 25.953 28.7728 26.0938 27.7248C26.2282 26.72 26.225 25.464 26.225 24H23.025ZM0.625007 24C0.625007 25.464 0.621806 26.7216 0.756206 27.7248C0.897006 28.7728 1.21541 29.7792 2.03141 30.5936L4.29381 28.3312C4.17221 28.2096 4.02181 27.992 3.92741 27.2976C3.82821 26.56 3.82501 25.5536 3.82501 24H0.625007ZM8.625 28.8C7.0714 28.8 6.0666 28.7968 5.3274 28.6976C4.63301 28.6032 4.41541 28.4528 4.29381 28.3312L2.03141 30.5936C2.84741 31.4096 3.85221 31.728 4.9002 31.8688C5.905 32.0032 7.161 32 8.625 32V28.8ZM3.82501 8C3.82501 6.4464 3.82821 5.4416 3.92741 4.7024C4.02181 4.00801 4.17221 3.79041 4.29381 3.66881L2.03141 1.40641C1.21541 2.22241 0.897006 3.22721 0.756206 4.2752C0.621806 5.28 0.625007 6.536 0.625007 8H3.82501ZM8.625 6.61139e-06C7.161 6.61139e-06 5.9034 -0.00319335 4.9002 0.131207C3.85221 0.272007 2.84581 0.590406 2.03141 1.40641L4.29381 3.66881C4.41541 3.54721 4.63301 3.39681 5.3274 3.30241C6.065 3.20321 7.0714 3.20001 8.625 3.20001V6.61139e-06Z" fill="black"/>
<path d="M9.42496 21.6H13.425H9.42496ZM9.42496 15.2H17.4249H9.42496ZM9.42496 8.80005H17.4249H9.42496Z" fill="black"/>
<path d="M9.42496 21.6H13.425M9.42496 15.2H17.4249M9.42496 8.80005H17.4249" stroke="black" stroke-width="3" stroke-linecap="round" stroke-linejoin="round"/>
</svg>
