<svg width="33" height="33" viewBox="0 0 33 33" fill="none" xmlns="http://www.w3.org/2000/svg">
<path d="M16.125 2C8.11687 2 1.625 8.49187 1.625 16.5C1.625 24.5081 8.11687 31 16.125 31C24.1331 31 30.625 24.5081 30.625 16.5C30.625 8.49187 24.1331 2 16.125 2Z" stroke="black" stroke-width="3" stroke-linecap="round" stroke-linejoin="round"/>
<path d="M4.91794 25.7012C4.91794 25.7012 8.15002 21.575 16.125 21.575C24.1 21.575 27.3322 25.7012 27.3322 25.7012" stroke="black" stroke-width="3" stroke-linecap="round" stroke-linejoin="round"/>
<path d="M16.125 16.5C18.5275 16.5 20.475 14.5526 20.475 12.15C20.475 9.74762 18.5275 7.80005 16.125 7.80005C13.7225 7.80005 11.775 9.74762 11.775 12.15C11.775 14.5526 13.7225 16.5 16.125 16.5Z" stroke="black" stroke-width="3" stroke-linecap="round" stroke-linejoin="round"/>
</svg>
