<svg width="23" height="21" viewBox="0 0 23 21" fill="none" xmlns="http://www.w3.org/2000/svg">
<path d="M15.6262 1.90849V0.90918C15.6062 0.90918 15.5852 0.90918 15.5652 0.911178L15.6262 1.90849ZM6.54048 1.90849L6.60143 0.911178C6.58147 0.909913 6.56148 0.909246 6.54148 0.90918L6.54048 1.90849ZM11.0833 19.8961L10.5137 20.7165C10.6803 20.8321 10.8781 20.8943 11.0809 20.8948C11.2836 20.8954 11.4818 20.8342 11.6489 20.7195L11.0833 19.8961ZM15.5652 0.911178C14.4752 0.978672 13.4191 1.31662 12.4924 1.8945L13.5476 3.59133C14.1925 3.18877 14.9275 2.95317 15.6862 2.9058L15.5652 0.911178ZM12.4924 1.8945C11.5702 2.47049 10.7989 3.25851 10.2429 4.19291L11.9587 5.2172C12.3585 4.54867 12.9041 3.99205 13.5476 3.59133L12.4924 1.8945ZM11.9238 4.19291C11.368 3.25863 10.5972 2.47062 9.67531 1.8945L8.61804 3.59133C9.2616 3.99205 9.80822 4.54867 10.2079 5.2172L11.9228 4.19191L11.9238 4.19291ZM9.67531 1.8945C8.74828 1.31646 7.69184 0.978508 6.60143 0.911178L6.47952 2.9058C7.23823 2.95317 7.97319 3.18877 8.61804 3.59133L9.67531 1.8945ZM6.53948 0.90918C4.81767 0.90918 3.1728 1.61869 1.96664 2.86983L3.40564 4.25687C3.8103 3.83264 4.29645 3.49448 4.83495 3.26266C5.37345 3.03085 5.95321 2.91015 6.53948 2.9078V0.90918ZM1.96664 2.86983C0.758329 4.13169 0.0867162 5.8125 0.0909316 7.55959H2.08955C2.08955 6.31445 2.56722 5.12727 3.40564 4.25687L1.96664 2.86983ZM0.0909316 7.55959C0.0909316 9.19745 0.839415 10.8423 1.81974 12.3163C2.81205 13.8093 4.11615 15.2393 5.39327 16.4704C6.98617 17.9973 8.68598 19.4086 10.4798 20.6935L10.5037 20.7105L10.5107 20.7145L10.5127 20.7165L11.0833 19.8961L11.6529 19.0756L11.6489 19.0716C11.6159 19.0492 11.5833 19.0262 11.551 19.0027C11.0731 18.6583 10.6023 18.3041 10.139 17.9404C8.97191 17.0278 7.85128 16.0572 6.78131 15.0324C5.55915 13.8532 4.36498 12.5361 3.48359 11.2101C2.59021 9.86599 2.08955 8.61885 2.08955 7.55959H0.0909316ZM11.0833 19.8961L11.6499 20.7195L11.6519 20.7175L11.6589 20.7125L11.6829 20.6965L11.7719 20.6346C11.8488 20.5796 11.9597 20.5006 12.0996 20.3987C13.7426 19.2049 15.3037 17.9022 16.7724 16.4994C18.0495 15.2713 19.3556 13.8432 20.3479 12.3463C21.3293 10.8663 22.0757 9.21344 22.0757 7.55959H20.0771C20.0771 8.63884 19.5745 9.89597 18.6821 11.242C17.8017 12.5711 16.6085 13.8842 15.3874 15.0584C13.8939 16.4842 12.3006 17.8016 10.6197 19.0007L10.5407 19.0556L10.5217 19.0696L10.5177 19.0716V19.0726L11.0833 19.8961ZM22.0757 7.55959C22.08 5.8125 21.4073 4.13169 20.199 2.86983L18.76 4.25687C19.6093 5.14624 20.0813 6.32985 20.0771 7.55959H22.0757ZM20.199 2.86983C19.6079 2.25217 18.8983 1.76017 18.1125 1.42327C17.3268 1.08638 16.4811 0.911523 15.6262 0.90918V2.9078C16.7954 2.9078 17.9226 3.38847 18.761 4.25687L20.199 2.86983ZM10.2439 4.19191C10.2229 4.22689 10.2639 4.15494 10.3179 4.08798C10.4106 3.97462 10.5274 3.88327 10.6598 3.82054C10.7922 3.75781 10.9369 3.72526 11.0833 3.72523V5.72385C11.2589 5.72385 11.4315 5.67804 11.584 5.59093C11.7364 5.50383 11.8635 5.37846 11.9527 5.2272L11.9587 5.2172L10.2429 4.19291L10.2439 4.19191ZM10.2089 5.2172L10.2149 5.2272C10.241 5.27045 10.2701 5.31185 10.3019 5.35111C10.3678 5.43106 10.6257 5.72385 11.0843 5.72385V3.72523C11.231 3.72511 11.3758 3.75759 11.5084 3.82033C11.641 3.88306 11.7579 3.97449 11.8508 4.08798C11.9058 4.15494 11.9457 4.22789 11.9248 4.19191L10.2089 5.2172Z" fill="white"/>
</svg>
