<svg width="20" height="24" viewBox="0 0 20 24" fill="none" xmlns="http://www.w3.org/2000/svg">
<path d="M5.40176 8.50708H4.21845C3.10259 8.50708 2.54526 8.50708 2.19855 8.85379C1.85184 9.2005 1.85184 9.75783 1.85184 10.8737V20.3402C1.85184 21.456 1.85184 22.0134 2.19855 22.3601C2.54526 22.7068 3.10259 22.7068 4.21845 22.7068H16.0515C17.1674 22.7068 17.7247 22.7068 18.0714 22.3601C18.4182 22.0134 18.4182 21.456 18.4182 20.3402V10.8737C18.4182 9.75783 18.4182 9.2005 18.0714 8.85379C17.7247 8.50708 17.1674 8.50708 16.0515 8.50708H14.8682M10.135 14.4236V1.40723M10.135 1.40723L13.0933 4.3655M10.135 1.40723L7.17673 4.3655" stroke="white" stroke-width="2" stroke-linecap="round" stroke-linejoin="round"/>
</svg>
